<?xml version="1.0" encoding="utf-8"?>
<!-- Generator: Adobe Illustrator 16.0.0, SVG Export Plug-In . SVG Version: 6.00 Build 0)  -->
<!DOCTYPE svg PUBLIC "-//W3C//DTD SVG 1.1//EN" "http://www.w3.org/Graphics/SVG/1.1/DTD/svg11.dtd">
<svg version="1.1" id="Layer_1" xmlns="http://www.w3.org/2000/svg" xmlns:xlink="http://www.w3.org/1999/xlink" x="0px" y="0px"
	 width="500px" height="500px" viewBox="0 0 500 500" enable-background="new 0 0 500 500" xml:space="preserve">
<g id="Layer_1_1_">
	<rect x="-822.313" y="-1333.094" fill="#939DAE" fill-opacity="0" width="2843.508" height="5937.5"/>
</g>
<g id="Layer_2">
	<g>
		<circle fill="none" stroke="#FF3F68" stroke-width="5" stroke-miterlimit="10" cx="250" cy="250" r="250"/>
		<path fill="#939DAE" d="M250.703,62.695c7.402,0,13.809,3.941,17.141,10.543l5.582,11.074
			c11.121,22.07,33.383,35.781,58.094,35.781c6.531,0,13.02-0.984,19.285-2.93l11.844-3.676c1.98-0.617,3.969-0.926,5.906-0.926
			c5.977,0,11.738,3.035,15.414,8.117c2.113,2.918,5.254,9.023,2.582,17.133l-3.887,11.777c-9.996,30.305,3.25,63.086,31.488,77.949
			l10.977,5.777c6.48,3.41,10.309,9.816,10.25,17.137c-0.066,7.32-4.008,13.656-10.547,16.953l-11.078,5.586
			c-28.496,14.367-42.313,46.91-32.852,77.383l3.68,11.852c2.5,8.055-0.668,14.07-2.773,16.938
			c-3.688,5.004-9.422,7.988-15.344,7.988c-2.035,0-4.121-0.348-6.203-1.031l-11.781-3.883c-6.598-2.176-13.449-3.277-20.367-3.277
			c-24.23,0-46.293,13.32-57.582,34.766l-5.777,10.98c-3.375,6.41-9.715,10.238-16.969,10.238c-7.395,0-13.797-3.941-17.129-10.543
			l-5.582-11.074c-11.121-22.07-33.383-35.781-58.094-35.781c-6.531,0-13.02,0.984-19.285,2.93l-11.844,3.676
			c-1.98,0.617-3.969,0.926-5.906,0.926c-5.977,0-11.738-3.035-15.414-8.117c-2.113-2.918-5.254-9.02-2.582-17.133l3.887-11.777
			c9.996-30.305-3.25-63.086-31.488-77.949l-10.977-5.777c-6.48-3.41-10.309-9.816-10.25-17.137
			c0.066-7.32,4.008-13.656,10.547-16.953l11.078-5.586c28.496-14.367,42.313-46.91,32.852-77.383l-3.68-11.852
			c-2.5-8.059,0.668-14.074,2.773-16.938c3.688-5,9.422-7.988,15.34-7.988c2.039,0,4.125,0.348,6.207,1.035l11.781,3.883
			c6.598,2.176,13.449,3.277,20.367,3.277c24.23,0,46.297-13.32,57.582-34.77l5.777-10.98
			C237.121,66.523,243.461,62.695,250.703,62.695 M250.703,58.105c-8.977,0-16.836,4.746-21.016,12.691l-5.777,10.98
			c-10.492,19.934-30.996,32.316-53.52,32.316c-6.43,0-12.797-1.027-18.93-3.047l-11.781-3.883c-2.547-0.84-5.113-1.266-7.645-1.266
			c-7.371,0-14.484,3.684-19.031,9.852c-2.621,3.563-6.566,11.031-3.465,21.023l3.68,11.852
			c8.793,28.324-4.051,58.574-30.535,71.926l-11.078,5.586c-8.102,4.086-12.988,11.938-13.066,21.012s4.668,17.012,12.699,21.238
			l10.977,5.777c26.246,13.813,38.559,44.285,29.27,72.453l-3.887,11.777c-3.313,10.047,0.598,17.633,3.223,21.258
			c4.535,6.27,11.688,10.012,19.129,10.012c2.398,0,4.844-0.383,7.27-1.133l11.844-3.676c5.82-1.805,11.852-2.723,17.926-2.723
			c22.969,0,43.656,12.742,53.996,33.258l5.578,11.078c4.125,8.18,12.059,13.066,21.227,13.066h0.008
			c8.98,0,16.84-4.746,21.023-12.691l5.777-10.98c10.492-19.934,30.996-32.316,53.52-32.316c6.426,0,12.797,1.027,18.93,3.047
			l11.781,3.883c2.547,0.84,5.117,1.266,7.641,1.266c7.375,0,14.488-3.684,19.035-9.855c2.621-3.563,6.566-11.031,3.465-21.02
			l-3.68-11.852c-8.793-28.324,4.051-58.574,30.535-71.926l11.078-5.586c8.102-4.086,12.988-11.938,13.066-21.012
			s-4.668-17.012-12.699-21.238l-10.977-5.777c-26.246-13.813-38.559-44.285-29.27-72.453l3.887-11.777
			c3.313-10.043-0.598-17.633-3.223-21.258c-4.535-6.27-11.688-10.012-19.129-10.012c-2.398,0-4.844,0.383-7.27,1.133l-11.844,3.676
			c-5.82,1.805-11.852,2.723-17.926,2.723c-22.969,0-43.656-12.742-53.996-33.258l-5.582-11.074
			C267.813,62.992,259.879,58.105,250.703,58.105L250.703,58.105z"/>
		<path fill="#939DAE" d="M301.496,70.172c7.121,2.023,12.207,7.566,13.605,14.824l2.344,12.18
			c4.672,24.27,22.34,43.539,46.109,50.289c6.285,1.785,12.797,2.609,19.352,2.453l12.398-0.301c2.074-0.051,4.07,0.191,5.938,0.723
			c5.75,1.633,10.461,6.125,12.609,12.02c1.234,3.383,2.59,10.113-2.195,17.184l-6.957,10.27
			c-17.895,26.422-14.109,61.574,8.992,83.586l8.98,8.559c5.301,5.051,7.234,12.262,5.176,19.285
			c-2.063,7.023-7.586,12.043-14.777,13.43l-12.184,2.348c-31.336,6.035-53.52,33.566-52.742,65.465l0.301,12.406
			c0.207,8.434-4.484,13.352-7.297,15.535c-4.914,3.805-11.246,5.109-16.941,3.492c-1.957-0.555-3.871-1.461-5.688-2.688
			l-10.273-6.953c-5.754-3.895-12.043-6.828-18.695-8.719c-23.309-6.621-48.172,0.168-64.891,17.715l-8.555,8.984
			c-4.996,5.246-12.141,7.195-19.121,5.215c-7.113-2.02-12.195-7.563-13.598-14.824l-2.344-12.18
			c-4.672-24.27-22.34-43.539-46.109-50.289c-6.285-1.785-12.797-2.609-19.352-2.453l-12.398,0.301
			c-2.074,0.051-4.07-0.191-5.938-0.723c-5.75-1.633-10.461-6.125-12.609-12.02c-1.234-3.383-2.59-10.113,2.195-17.184l6.957-10.27
			c17.895-26.422,14.109-61.574-8.992-83.586l-8.98-8.559c-5.301-5.051-7.234-12.262-5.176-19.285
			c2.063-7.023,7.586-12.043,14.777-13.43l12.184-2.348c31.336-6.035,53.52-33.566,52.742-65.465l-0.301-12.406
			c-0.203-8.434,4.484-13.355,7.297-15.535c4.914-3.805,11.246-5.109,16.938-3.492c1.961,0.559,3.875,1.461,5.691,2.691
			l10.273,6.953c5.754,3.895,12.043,6.828,18.695,8.719c23.309,6.621,48.172-0.168,64.891-17.715l8.555-8.984
			C287.387,70.145,294.531,68.195,301.496,70.172 M302.75,65.758c-8.633-2.453-17.492-0.035-23.684,6.465l-8.559,8.984
			c-15.539,16.309-38.648,22.617-60.313,16.465c-6.188-1.758-12.031-4.484-17.375-8.102l-10.273-6.953
			c-2.219-1.5-4.574-2.613-7.008-3.305c-7.09-2.016-14.938-0.414-21,4.277c-3.496,2.711-9.328,8.82-9.074,19.277l0.301,12.406
			c0.719,29.648-19.898,55.238-49.023,60.848l-12.184,2.348c-8.91,1.715-15.754,7.938-18.309,16.641
			c-2.551,8.707-0.156,17.641,6.414,23.902l8.98,8.559c21.477,20.457,24.992,53.133,8.359,77.691l-6.953,10.266
			c-5.93,8.762-4.242,17.125-2.707,21.332c2.648,7.27,8.508,12.824,15.668,14.859c2.305,0.656,4.766,0.957,7.301,0.895l12.398-0.301
			c6.094-0.148,12.145,0.621,17.988,2.277c22.094,6.273,38.516,24.184,42.855,46.742l2.344,12.18
			c1.734,8.996,8.031,15.863,16.848,18.371h0.008c8.641,2.453,17.496,0.035,23.688-6.465l8.559-8.984
			c15.539-16.309,38.648-22.617,60.313-16.465c6.184,1.754,12.031,4.484,17.375,8.102l10.273,6.953
			c2.219,1.5,4.578,2.613,7.004,3.305c7.094,2.016,14.945,0.414,21.004-4.277c3.496-2.711,9.328-8.816,9.074-19.273l-0.301-12.406
			c-0.719-29.648,19.898-55.238,49.023-60.848l12.184-2.348c8.91-1.715,15.754-7.938,18.309-16.641
			c2.551-8.707,0.156-17.641-6.414-23.902l-8.98-8.559c-21.477-20.457-24.992-53.133-8.359-77.691l6.953-10.266
			c5.93-8.758,4.242-17.125,2.707-21.332c-2.648-7.27-8.508-12.824-15.668-14.859c-2.305-0.656-4.766-0.957-7.301-0.895
			l-12.398,0.301c-6.094,0.148-12.145-0.621-17.988-2.277c-22.094-6.273-38.516-24.184-42.855-46.742l-2.344-12.18
			C317.875,75.133,311.574,68.266,302.75,65.758L302.75,65.758z"/>
		<path fill="#939DAE" d="M346.074,89.855c6.352,3.801,9.824,10.473,9.293,17.848l-0.895,12.371
			c-1.789,24.648,10.273,47.844,31.477,60.535c5.605,3.355,11.68,5.84,18.051,7.391l12.051,2.93
			c2.016,0.488,3.883,1.242,5.547,2.238c5.129,3.07,8.516,8.629,9.059,14.879c0.313,3.586-0.125,10.441-6.582,16.027l-9.383,8.109
			c-24.137,20.871-29.609,55.801-13.008,83.059l6.449,10.594c3.809,6.254,3.805,13.719-0.008,19.969
			c-3.816,6.246-10.453,9.66-17.754,9.133l-12.375-0.895c-31.828-2.305-60.395,18.523-67.926,49.531l-2.93,12.059
			c-1.992,8.195-7.797,11.73-11.078,13.109c-5.734,2.398-12.188,2.016-17.27-1.023c-1.746-1.043-3.359-2.414-4.793-4.074
			l-8.113-9.383c-4.543-5.254-9.859-9.719-15.793-13.27c-20.793-12.441-46.566-12.34-67.262,0.266l-10.594,6.457
			c-6.188,3.77-13.594,3.797-19.816,0.074c-6.344-3.797-9.816-10.469-9.281-17.844l0.895-12.371
			c1.789-24.648-10.273-47.844-31.477-60.535c-5.605-3.355-11.68-5.84-18.051-7.391l-12.051-2.93
			c-2.016-0.488-3.883-1.242-5.547-2.238c-5.129-3.07-8.516-8.629-9.059-14.879c-0.313-3.586,0.125-10.438,6.582-16.023l9.383-8.109
			c24.137-20.871,29.609-55.801,13.008-83.055l-6.449-10.594c-3.809-6.254-3.805-13.719,0.008-19.969
			c3.816-6.246,10.453-9.66,17.754-9.133l12.375,0.895c31.828,2.305,60.395-18.523,67.926-49.531l2.93-12.059
			c1.992-8.199,7.797-11.734,11.078-13.109c5.73-2.398,12.188-2.016,17.262,1.023c1.75,1.047,3.363,2.418,4.797,4.074l8.113,9.383
			c4.543,5.254,9.859,9.719,15.793,13.27c20.793,12.441,46.566,12.34,67.262-0.266l10.594-6.457
			C332.453,86.164,339.859,86.137,346.074,89.855 M348.434,85.918c-7.703-4.609-16.883-4.574-24.551,0.098l-10.598,6.457
			c-19.238,11.719-43.191,11.813-62.52,0.246c-5.52-3.301-10.457-7.453-14.68-12.336L227.969,71
			c-1.754-2.027-3.738-3.711-5.91-5.012c-6.324-3.785-14.32-4.277-21.391-1.32c-4.078,1.711-11.301,6.098-13.766,16.258
			l-2.93,12.059c-7,28.82-33.555,48.18-63.137,46.039l-12.375-0.895c-9.051-0.656-17.273,3.574-22.004,11.32
			c-4.723,7.746-4.73,16.996-0.008,24.746l6.449,10.594c15.43,25.332,10.344,57.801-12.09,77.199l-9.383,8.109
			c-8,6.922-8.543,15.438-8.152,19.898c0.672,7.707,4.887,14.594,11.273,18.418c2.059,1.23,4.352,2.16,6.82,2.758l12.051,2.93
			c5.922,1.441,11.57,3.75,16.781,6.867c19.707,11.793,30.918,33.352,29.254,56.266l-0.895,12.371
			c-0.66,9.141,3.637,17.406,11.504,22.113l0.004,0.004c7.707,4.613,16.887,4.574,24.555-0.094l10.598-6.457
			c19.238-11.719,43.191-11.813,62.52-0.246c5.516,3.301,10.457,7.453,14.68,12.336l8.117,9.383
			c1.754,2.027,3.742,3.711,5.906,5.008c6.328,3.789,14.324,4.277,21.395,1.32c4.078-1.711,11.297-6.094,13.766-16.258l2.93-12.059
			c7-28.82,33.555-48.18,63.137-46.039l12.375,0.895c9.051,0.656,17.273-3.574,22.004-11.32c4.723-7.746,4.73-16.996,0.008-24.746
			l-6.449-10.594c-15.43-25.332-10.344-57.801,12.09-77.199l9.383-8.109c8-6.918,8.543-15.438,8.152-19.898
			c-0.672-7.707-4.887-14.594-11.273-18.418c-2.059-1.23-4.352-2.16-6.82-2.758l-12.051-2.93c-5.922-1.441-11.57-3.75-16.781-6.867
			c-19.707-11.793-30.918-33.352-29.254-56.266l0.895-12.371C360.605,98.895,356.305,90.629,348.434,85.918L348.434,85.918z"/>
		<g>
			<path fill="#FF3F68" d="M250,416.016c-91.543,0-166.016-74.473-166.016-166.016S158.457,83.984,250,83.984
				S416.016,158.457,416.016,250S341.543,416.016,250,416.016z"/>
			<path fill="#FFFFFF" d="M250,89.844c88.309,0,160.156,71.848,160.156,160.156S338.309,410.156,250,410.156
				S89.844,338.309,89.844,250S161.691,89.844,250,89.844 M250,78.125c-94.926,0-171.875,76.949-171.875,171.875
				S155.074,421.875,250,421.875S421.875,344.926,421.875,250S344.926,78.125,250,78.125L250,78.125z"/>
		</g>
		<g>
			<g>
				<defs>
					<circle id="SVGID_1_" cx="250" cy="250" r="160.156"/>
				</defs>
				<clipPath id="SVGID_2_">
					<use xlink:href="#SVGID_1_"  overflow="visible"/>
				</clipPath>
				<path clip-path="url(#SVGID_2_)" fill="#F7487E" d="M144.465,181.035l18.277,18.344l-3.348,31l18.895,19.328l-0.66,14.762
					l-13.23-13.254c0,0-9.301-1.699-11.145-0.25s-5.93,9.883-4.875,18.711s2.344,15.707,2.344,15.707l27.199,34.238l-28.32,23.176
					l83.008,100.586l83.242-13.215l63.246-30.57l28.461-44.273l8.434-43.18l11.063-25.066l20.301-29.523L347.98,157.207
					l-14.805,22.273l-16.824-17.094c0,0-19.176,0.82-20.117,2.93s-2.785,17.063-2.785,17.063l-19.848-19.75
					c0,0-19.242,0.051-23.543,1.895c-4.305,1.844-8.785,18.711-8.785,18.711l-20.734-20.645c0,0-23.801,1.406-26.965,3.516
					s-5.664,5.535-5.664,5.535l-12.836-12.797L144.465,181.035z"/>
			</g>
		</g>
		<g>
			<g>
				<path fill="#FFFFFF" d="M159.395,230.379v-49.344h-14.93V169.73h1.117c4.746,0,8.828-0.984,12.238-2.957
					c3.41-1.969,5.426-4.613,6.059-7.926h11.199v71.535h-15.684V230.379z"/>
				<path fill="#FFFFFF" d="M184.004,167.242c1.34-2.98,3.625-5.383,6.844-7.203s7.5-2.734,12.836-2.734
					c14.727,0,22.086,6.684,22.086,20.051v34.387c0,13.434-7.363,20.148-22.086,20.148c-5.305,0-9.57-0.922-12.809-2.77
					s-5.531-4.27-6.867-7.27c-1.344-3-2.012-6.371-2.012-10.113v-34.387C181.992,173.598,182.664,170.227,184.004,167.242z
					 M199.234,171.383c-0.695,1.168-1.047,3.059-1.047,5.676v35.109c0,2.617,0.355,4.508,1.059,5.68
					c0.703,1.168,2.113,1.75,4.234,1.75c2.188,0,3.648-0.582,4.387-1.75s1.109-3.063,1.109-5.68v-35.109
					c0-2.617-0.367-4.508-1.094-5.676c-0.73-1.168-2.195-1.754-4.398-1.754C201.344,169.629,199.934,170.215,199.234,171.383z"/>
				<path fill="#FFFFFF" d="M237.027,167.242c1.34-2.98,3.625-5.383,6.844-7.203s7.5-2.734,12.836-2.734
					c14.727,0,22.086,6.684,22.086,20.051v34.387c0,13.434-7.363,20.148-22.086,20.148c-5.305,0-9.57-0.922-12.809-2.77
					s-5.531-4.27-6.867-7.27c-1.344-3-2.012-6.371-2.012-10.113v-34.387C235.016,173.598,235.684,170.227,237.027,167.242z
					 M252.258,171.383c-0.695,1.168-1.047,3.059-1.047,5.676v35.109c0,2.617,0.355,4.508,1.059,5.68
					c0.703,1.168,2.113,1.75,4.234,1.75c2.188,0,3.648-0.582,4.387-1.75s1.109-3.063,1.109-5.68v-35.109
					c0-2.617-0.367-4.508-1.094-5.676c-0.73-1.168-2.195-1.754-4.398-1.754C254.367,169.629,252.953,170.215,252.258,171.383z"/>
				<path fill="#FFFFFF" d="M288.027,176.438c0-6.41,1.348-11.082,4.039-14.016c2.688-2.934,6.746-4.398,12.16-4.398
					c5.453,0,9.492,1.453,12.125,4.359c2.637,2.906,3.949,7.59,3.949,14.051c0,6.41-1.32,11.102-3.973,14.074
					c-2.652,2.977-6.684,4.461-12.102,4.461c-5.414,0-9.469-1.48-12.16-4.449C289.375,187.559,288.027,182.863,288.027,176.438z
					 M304.227,166.473c-1.605,0-2.652,0.793-3.141,2.375s-0.734,4.113-0.734,7.59c0,3.262,0.246,5.762,0.746,7.488
					c0.5,1.73,1.539,2.598,3.129,2.598c1.523,0,2.531-0.867,3.02-2.609c0.488-1.738,0.738-4.23,0.738-7.477
					c0-3.48-0.242-6.008-0.719-7.59C306.781,167.266,305.766,166.473,304.227,166.473z M306.566,232.715l33.07-75.508h8.348
					l-32.969,75.508H306.566z M334.141,212.566c0-6.426,1.348-11.102,4.039-14.027c2.691-2.922,6.77-4.387,12.238-4.387
					c3.594,0,6.59,0.621,8.98,1.867c2.391,1.242,4.195,3.219,5.406,5.938c1.207,2.715,1.813,6.219,1.813,10.512
					c0,4.289-0.609,7.824-1.824,10.609c-1.219,2.785-3.027,4.832-5.418,6.148s-5.379,1.973-8.957,1.973
					c-5.453,0-9.523-1.492-12.227-4.473C335.492,223.746,334.141,219.027,334.141,212.566z M350.418,202.602
					c-1.641,0-2.711,0.789-3.207,2.371c-0.492,1.582-0.746,4.113-0.746,7.59c0,3.297,0.258,5.816,0.77,7.566
					c0.516,1.746,1.578,2.621,3.184,2.621c1.688,0,2.758-0.844,3.203-2.535c0.449-1.691,0.672-4.273,0.672-7.75
					c0-3.563-0.227-6.098-0.684-7.602C353.156,203.355,352.09,202.602,350.418,202.602z"/>
			</g>
			<g>
				<path fill="#FFFFFF" d="M165.168,271.449h-8.043v-2.902h11.266v18.523h-2.59l-0.316-3.828c-0.945,1.602-2.082,2.789-3.414,3.559
					c-1.328,0.773-2.922,1.156-4.785,1.156c-2.348,0-4.254-0.602-5.719-1.801s-2.543-2.77-3.242-4.707s-1.152-4.016-1.363-6.234
					s-0.316-4.734-0.316-7.559c0-2.43,0.129-4.699,0.387-6.797c0.254-2.098,0.762-4.059,1.52-5.883
					c0.758-1.828,1.91-3.309,3.469-4.449c1.551-1.141,3.566-1.711,6.039-1.711c2.992,0,5.332,1.047,7.027,3.141
					c1.691,2.094,2.617,4.746,2.781,7.965h-3.109c-0.699-5.504-3-8.258-6.902-8.258c-2.297,0-4.035,0.762-5.215,2.285
					c-1.176,1.52-1.934,3.453-2.273,5.801c-0.336,2.344-0.508,5.223-0.508,8.629c0,2.688,0.137,5.199,0.41,7.539
					c0.273,2.336,0.98,4.453,2.121,6.344c1.141,1.895,2.852,2.84,5.145,2.84c2.152,0,3.781-0.707,4.883-2.125
					c1.105-1.418,1.813-3.066,2.129-4.953C164.871,276.148,165.07,273.953,165.168,271.449z"/>
				<path fill="#FFFFFF" d="M175.711,277.219v-27.512h3.219v27.152c0,1.883,0.184,3.418,0.559,4.602
					c0.371,1.184,1.051,2.086,2.039,2.715c0.988,0.625,2.383,0.938,4.195,0.938c2.711,0,4.57-0.727,5.586-2.18
					c1.012-1.453,1.52-3.578,1.52-6.375v-26.848h3.219v25.953c0,3.984-0.754,7.043-2.258,9.168s-4.16,3.184-7.961,3.184
					C179.09,288.012,175.711,284.414,175.711,277.219z"/>
				<path fill="#FFFFFF" d="M210.332,249.707h3.723l10.023,37.367h-3.266l-2.953-11.531h-11.32l-3.063,11.531h-3.117
					L210.332,249.707z M207.215,272.695h9.957l-4.93-18.895h-0.098L207.215,272.695z"/>
				<path fill="#FFFFFF" d="M227.766,287.074v-37.367h8.82c3.094,0,5.512,0.742,7.273,2.223c1.758,1.48,2.637,3.961,2.637,7.434
					c0,2.027-0.473,3.906-1.426,5.633c-0.949,1.727-2.309,2.738-4.074,3.035v0.102c2.008,0.508,3.344,1.488,4,2.945
					s0.98,3.52,0.98,6.188c0,2.617,0.121,4.652,0.355,6.102c0.238,1.449,0.691,2.527,1.371,3.238v0.469h-3.535
					c-0.652-1.453-1.063-2.941-1.242-4.465c-0.176-1.527-0.262-3.703-0.262-6.531c0-2.105-0.59-3.73-1.762-4.879
					s-2.676-1.723-4.508-1.723h-5.398v17.602h-3.23V287.074z M230.988,252.609v13.965h5.699c4.395,0,6.594-2.352,6.594-7.059
					c0-2.535-0.586-4.32-1.75-5.352c-1.164-1.035-3.055-1.551-5.664-1.551h-4.879V252.609z"/>
				<path fill="#FFFFFF" d="M260.152,249.707h3.723l10.023,37.367h-3.266l-2.953-11.531h-11.32l-3.063,11.531h-3.117
					L260.152,249.707z M257.035,272.695h9.957l-4.93-18.895h-0.098L257.035,272.695z"/>
				<path fill="#FFFFFF" d="M281.793,249.707l13.75,32.07h0.098v-32.07h3.219v37.367h-3.891l-13.863-31.969h-0.098v31.969h-3.219
					v-37.367H281.793z"/>
				<path fill="#FFFFFF" d="M311.637,252.609h-8.465v-2.902h20.184v2.902h-8.449v34.465h-3.27V252.609z"/>
				<path fill="#FFFFFF" d="M344.793,287.074h-17.184v-37.367h16.914v2.902h-13.695v13.445h12.457v2.902h-12.457v15.219h13.965
					V287.074z"/>
				<path fill="#FFFFFF" d="M366.906,287.074h-17.184v-37.367h16.914v2.902h-13.695v13.445h12.457v2.902h-12.457v15.219h13.965
					V287.074z"/>
			</g>
			<path fill="#FFFFFF" d="M160.203,339.5l-8.949,3.184c-1.258,0.449-2.574-0.508-2.539-1.844l0.262-9.496
				c0.012-0.438-0.129-0.867-0.395-1.211l-5.793-7.527c-0.816-1.059-0.313-2.605,0.969-2.984l9.109-2.684
				c0.418-0.125,0.785-0.387,1.031-0.75l5.371-7.836c0.754-1.102,2.383-1.102,3.137,0l5.371,7.836
				c0.246,0.359,0.613,0.625,1.031,0.75l9.109,2.684c1.281,0.379,1.785,1.926,0.969,2.984l-5.793,7.527
				c-0.266,0.348-0.406,0.773-0.395,1.211l0.262,9.496c0.035,1.336-1.281,2.293-2.539,1.844l-8.949-3.184
				C161.066,339.352,160.617,339.352,160.203,339.5z"/>
			<path fill="#FFFFFF" d="M207.426,339.5l-8.949,3.184c-1.258,0.449-2.574-0.508-2.539-1.844l0.262-9.496
				c0.012-0.438-0.129-0.867-0.395-1.211l-5.793-7.527c-0.816-1.059-0.313-2.605,0.969-2.984l9.109-2.684
				c0.418-0.125,0.785-0.387,1.031-0.75l5.371-7.836c0.754-1.102,2.383-1.102,3.137,0l5.371,7.836
				c0.246,0.359,0.613,0.625,1.031,0.75l9.109,2.684c1.281,0.379,1.785,1.926,0.969,2.984l-5.793,7.527
				c-0.266,0.348-0.406,0.773-0.395,1.211l0.262,9.496c0.035,1.336-1.281,2.293-2.539,1.844l-8.949-3.184
				C208.285,339.352,207.836,339.352,207.426,339.5z"/>
			<path fill="#FFFFFF" d="M301.867,339.5l-8.949,3.184c-1.258,0.449-2.574-0.508-2.539-1.844l0.262-9.496
				c0.012-0.438-0.129-0.867-0.395-1.211l-5.793-7.527c-0.816-1.059-0.313-2.605,0.969-2.984l9.109-2.684
				c0.418-0.125,0.785-0.387,1.031-0.75l5.371-7.836c0.754-1.102,2.383-1.102,3.137,0l5.371,7.836
				c0.246,0.359,0.613,0.625,1.031,0.75l9.109,2.684c1.281,0.379,1.785,1.926,0.969,2.984l-5.793,7.527
				c-0.266,0.348-0.406,0.773-0.395,1.211l0.262,9.496c0.035,1.336-1.281,2.293-2.539,1.844l-8.949-3.184
				C302.727,339.352,302.277,339.352,301.867,339.5z"/>
			<path fill="#FFFFFF" d="M254.645,339.5l-8.949,3.184c-1.258,0.449-2.574-0.508-2.539-1.844l0.262-9.496
				c0.012-0.438-0.129-0.867-0.395-1.211l-5.793-7.527c-0.816-1.059-0.313-2.605,0.969-2.984l9.109-2.684
				c0.418-0.125,0.785-0.387,1.031-0.75l5.371-7.836c0.754-1.102,2.383-1.102,3.137,0l5.371,7.836
				c0.246,0.359,0.613,0.625,1.031,0.75l9.109,2.684c1.281,0.379,1.785,1.926,0.969,2.984l-5.793,7.527
				c-0.266,0.348-0.406,0.773-0.395,1.211l0.262,9.496c0.035,1.336-1.281,2.293-2.539,1.844l-8.949-3.184
				C255.508,339.352,255.059,339.352,254.645,339.5z"/>
			<path fill="#FFFFFF" d="M349.086,339.5l-8.949,3.184c-1.258,0.449-2.574-0.508-2.539-1.844l0.262-9.496
				c0.012-0.438-0.129-0.867-0.395-1.211l-5.793-7.527c-0.816-1.059-0.313-2.605,0.969-2.984l9.109-2.684
				c0.418-0.125,0.785-0.387,1.031-0.75l5.371-7.836c0.754-1.102,2.383-1.102,3.137,0l5.371,7.836
				c0.246,0.359,0.613,0.625,1.031,0.75l9.109,2.684c1.281,0.379,1.785,1.926,0.969,2.984l-5.793,7.527
				c-0.266,0.348-0.406,0.773-0.395,1.211l0.262,9.496c0.035,1.336-1.281,2.293-2.539,1.844l-8.949-3.184
				C349.949,339.352,349.5,339.352,349.086,339.5z"/>
		</g>
	</g>
</g>
</svg>
