<?xml version="1.0" encoding="utf-8"?>
<!-- Generator: Adobe Illustrator 16.0.0, SVG Export Plug-In . SVG Version: 6.00 Build 0)  -->
<!DOCTYPE svg PUBLIC "-//W3C//DTD SVG 1.1//EN" "http://www.w3.org/Graphics/SVG/1.1/DTD/svg11.dtd">
<svg version="1.1" id="Layer_1" xmlns="http://www.w3.org/2000/svg" xmlns:xlink="http://www.w3.org/1999/xlink" x="0px" y="0px"
	 width="500px" height="500px" viewBox="0 0 500 500" enable-background="new 0 0 500 500" xml:space="preserve">
<g>
	<path fill="#FF3F68" d="M306.315,75.938h-6.708c-49.495,0-89.618,40.124-89.618,89.619v188.831h185.944V165.558
		C395.934,116.063,355.811,75.938,306.315,75.938z"/>
	<path fill="#EBF2FF" d="M242.323,135.899c-1.91,6.635-2.942,13.715-2.942,21.067v63.56c0,37.697,27.133,68.255,60.594,68.255h7.433
		c33.455,0,60.589-30.559,60.589-68.255V180.35C367.996,180.35,283.905,187.129,242.323,135.899z"/>
	<path fill="#B8D4EA" d="M349.249,179.767v28.295c0,33.175-16.889,61.482-40.679,72.731c32.642-2.751,58.314-31.3,58.314-66.149
		v-24.104L349.249,179.767z"/>
	<path fill="#B8D4EA" d="M278.095,401.761h135.916v-4.88c0-34.653-15.966-66.146-45.353-81.085c0,0-13.39,39.982-64.971,39.982
		s-67.278-34.994-67.278-34.994l-2.521,80.977H278.095z"/>
	<rect x="275.35" y="383.182" opacity="0.13" width="35.421" height="16.324"/>
	<path fill="#FF5A85" d="M247.82,151.634c0-47.372-47.125-89.066-94.499-89.066l0,0c-47.372,0-92.097,31.623-92.097,86.792
		c0,16.688,4.298,46.776,24.408,63.279c0,0-3.928-64.121,21.861-75.051c0,0,29.189,22.139,47.464,26.185
		c-4.673-11.126,1.996-26.169,1.996-26.169s73.928,40.777,73.928,75.035C250.601,190.661,247.82,151.634,247.82,151.634z"/>
	<path fill="#EBF2FF" d="M224.002,186.313l-70.307-53.34l-4.638,29.458l-48.843-29.458c-4.396,9.029-11.733,25.791-11.733,36.617
		v40.826c0,36.669,28.422,66.389,63.481,66.389h8.56c35.058,0,63.48-29.72,63.48-66.389V186.313L224.002,186.313z"/>
	<path fill="#EBF2FF" d="M127.567,275.143v20.418L91.151,310.18c0,0,27.291,47.825,70.525,47.825
		c43.236,0,59.655-52.593,59.655-52.593l-33.406-8.997v-24.717C187.925,275.326,152.625,281.79,127.567,275.143z"/>
	<path fill="#EBF2FF" d="M272.825,285.747v20.415l-36.416,14.622c0,0,27.571,34.994,70.803,34.994
		c43.237,0,59.375-39.765,59.375-39.765l-33.406-8.997v-24.716C333.181,285.928,297.883,292.392,272.825,285.747z"/>
	<path fill="#FF5A85" d="M452.867,310.821c-29.49,7.602-61.813-9.848-68.252-14.212c0,0-1.856-0.796-2.361-0.481
		c-0.507-0.314-2.36,0.481-2.36,0.481c-6.708,4.545-39.696,23.109-69.988,13.16c-1.708-0.559-6.135,0.324-7.553,4.413
		c-6.69,19.354-22.447,79.005,23.753,126.993c18.975,19.707,50.175,32.768,52.567,34.435v0.189c0,0-0.132-0.034,0-0.095
		c0.143,0.061,0,0.095,0,0.095v-0.189c9.575-1.667,38.16-14.728,57.134-34.435c43.271-44.951,35.014-100.137,28.911-122.848
		C464.156,316.257,460.563,308.845,452.867,310.821z"/>
	<g>
		<path fill="#263357" d="M462.334,324.489c-0.545-1.997-4.009-9.144-11.424-7.235c-3.613,0.932-7.27,1.465-10.914,1.693
			c5.725,23.372,11.433,74.011-28.59,115.587c-15.865,16.478-38.685,28.12-50.487,31.971c9.68,5.43,17.358,8.813,18.476,9.593
			c9.227-1.607,36.785-14.194,55.071-33.191C476.176,399.577,468.216,346.38,462.334,324.489z"/>
		<path fill="#F2B01F" d="M379.395,476.281c0,0,0.132-0.034,0-0.092C379.263,476.247,379.395,476.281,379.395,476.281z"/>
	</g>
	<g>
		<path fill="#FF3F68" d="M101.751,138.991c-5.022-4.513-8.344-7.835-8.344-7.835c-11.402,3.079-18.682,16.702-23.265,30.979
			c1.707,12.125,5.933,24.771,14.853,34.414C84.995,196.549,87.895,158.568,101.751,138.991z"/>
		<path fill="#FF3F68" d="M241.85,149.477c0-45.341-45.105-85.247-90.448-85.247l0,0c-12.836,0-25.467,2.431-36.984,7.107
			c5.079-0.786,10.247-1.205,15.456-1.205l0,0c45.341,0,90.445,39.906,90.445,85.249c0,0,1.057,14.907-2.92,31.187
			c5.026,7.092,8.236,14.334,8.236,21.297C244.512,186.83,241.85,149.477,241.85,149.477z"/>
	</g>
	<polygon fill="#2E75DA" points="272.825,307.95 241.979,307.95 241.979,253.314 272.825,276.805 	"/>
	<g opacity="0.13">
		<path d="M215.034,307.979l-12.053,12.183c32.534,14.249,50.718,46.939,51.813,83.544h21.633v-5.117
			C276.427,357.128,254.646,319.977,215.034,307.979z"/>
	</g>
	<path fill="#B8D4EA" d="M189.505,155.846l19.771,17.609v28.296c0,33.173-16.89,61.483-40.68,72.729
		c32.642-2.75,58.317-31.302,58.317-66.149v-24.104L189.505,155.846z"/>
	<g>
		<path fill="#B8D4EA" d="M168.596,306.735l40.399,10.88c2.238-4.972,3.276-8.295,3.276-8.295l-33.406-8.997v-24.716
			c0,1.22-4.009,2.762-10.27,4.017V306.735z"/>
	</g>
	<rect x="318.473" y="282.301" fill="#B8D4EA" width="14.708" height="25.679"/>
</g>
<path fill="#263357" d="M472.013,312.813c-1.894-7.002-9.61-15.575-20.759-12.695h-0.003c-15.135,3.905-31.668,0.212-44.108-4.401
	c0.332-0.837,0.53-1.748,0.53-2.708V170.766c0-91.443-109.094-139.457-176.61-77.739C177.225,18.108,57.137,50.562,57.137,145.754
	c0,20.475,2.396,49.377,22.176,67.25c3.546,26.833,18.719,49.494,39.614,61.442v10.117c-35.919,0.653-99.849,43.533-99.849,115.251
	c0,4.052,3.282,7.336,7.335,7.336c1.638,0,248.449,0.151,250.031-0.267c1.639,0.43,18.883,0.267,20.636,0.267
	c5.264,12.049,12.951,24.083,23.957,35.513c16.467,17.103,41.4,29.352,50.79,33.962c0.908,0.444,1.665,0.811,2.229,1.098
	c0.227,0.194,0.467,0.378,0.717,0.547c1.223,0.831,2.658,1.264,4.114,1.264c0.627,0,1.261-0.077,1.877-0.246
	c0.424-0.109,0.828-0.258,1.215-0.438c12.357-2.982,40.372-16.501,59.326-36.188C487.597,394.571,478.202,335.839,472.013,312.813z
	 M393.002,170.766v118.583c-1.742-0.951-3.146-1.793-4.063-2.415c-0.388-0.258-0.791-0.481-1.218-0.665
	c-1.92-0.825-3.659-1.194-5.253-1.151c-1.618-0.037-3.338,0.326-5.258,1.151c-0.424,0.184-0.83,0.407-1.215,0.665
	c-5.782,3.917-19.575,11.04-35.266,13.71c0-1.22,0.086-20.292-0.138-21.489c44.667-29.582,38.719-94.157,29.633-106.271
	c-1.363-1.816-3.49-2.899-5.759-2.934c-74.65-1.096-95.931-26.342-120.574-52.561c-1.421-3.977-3.097-7.851-5.021-11.602
	C296.267,49.887,393.002,90.729,393.002,170.766z M295.634,308.186c-2.806,8.12-6.278,20.521-7.774,35.292
	c-11.902-1.849-21.432-5.358-26.28-9.705c-4.146-6.055-8.854-11.708-14.074-16.871c10.926-3.988,16.963-4.736,19.896-5.47
	c1.507,8.828,14.547,7.668,14.547-1.237v-22.699c11.607,3.255,30.852,3.444,44.111-1.132v15.243
	c-4.59-0.212-9.188-0.939-13.65-2.406C306.607,297.303,298.295,300.515,295.634,308.186z M192.363,276.088
	c3.668-1.865,7.184-4.04,10.501-6.519v19.88c-3.419-1.152-6.917-2.163-10.491-3.012
	C192.374,275.593,192.363,276.088,192.363,276.088z M217.38,295.446c0.227-1.101,0.292-38.613-0.028-40.06
	c6.321-8.009,11.269-17.383,14.447-27.672c3.792,23.448,17.339,43.156,35.792,53.729c-0.487,1.699-0.313,1.579-0.313,15.757
	c-4.699-1.075-26.947,6.097-32.238,9.025C229.534,302.146,223.63,298.535,217.38,295.446z M333.882,266.043
	c-8.553,5.781-17.464,9.068-27.942,9.068h-7.421c-29.304,0-53.143-27.272-53.143-60.796v-21.304c0-0.512-0.055-1.012-0.153-1.493
	c4.319-17.032,4.562-31.054,3.988-46.713c28.09,26.719,61.17,38.358,110.482,39.716C364.02,198.881,365.037,245.548,333.882,266.043
	z M153.534,66.299c43.2,0,81.097,38.192,81.097,81.733c0,2.936,1.39,19.212-3.361,38.811c-18.003-29.579-64.177-55.748-70.56-59.269
	c-1.801-0.994-3.938-1.188-5.884-0.527c-1.948,0.656-3.533,2.097-4.364,3.977c-0.547,1.233-3.854,9.04-4.258,18.163
	c-19.227-8.891-52.133-33.15-63.62-45.61C97.675,78.196,126.317,66.299,153.534,66.299z M76.08,117.863
	c5.649,5.421,12.519,11.01,19.223,16.09c-11.939,12.524-15.69,35.742-16.716,53.27C71.16,170.532,68.978,139.241,76.08,117.863z
	 M93.183,200.923c0-16.312,1.45-47.948,14.077-58.174c8.907,6.373,30.723,21.126,46.326,24.579c2.679,0.604,5.461-0.355,7.215-2.461
	c4.756-5.685-1.913-6.639,0.673-19.902c22.656,13.682,51.469,35.839,59.877,54.32c-0.122,0.529-0.199,1.075-0.199,1.639
	c0,37.458-26.682,67.934-59.482,67.934h-9.007C119.864,268.856,93.183,238.381,93.183,200.923z M119.145,299.297
	c2.013,8.413,14.453,6.929,14.453-1.707v-16.843c13.013,3.859,33.142,3.519,44.105,0.813v16.029c0,4.051,3.284,7.335,7.335,7.335
	c2.667,0,4.979-1.438,6.263-3.567c3.768,0.985,7.441,2.154,11.004,3.527l-46.611,34.409l-48.565-37.289
	C111.038,300.861,115.052,299.962,119.145,299.297z M234.462,392.479v-23.034c0-4.051-3.284-7.335-7.335-7.335
	c-4.052,0-7.335,3.284-7.335,7.335v23.034H80.971c-0.517-14.532,0.236-23.547,0.244-23.65c0.833-9.636-13.759-10.959-14.615-1.277
	c-0.04,0.444-0.83,9.753-0.313,24.928h-32.27c2.673-36.498,25.121-68.558,57.114-84.26c65.161,50.028,60.966,47.59,64.477,47.59
	c3.347,0-0.664,2.272,61.648-43.725c29.008,17.037,47.409,47.332,49.733,80.395H234.462z M281.665,392.479
	c-0.803-13.022-3.702-25.516-8.436-37.1c4.728,1.31,9.49,2.218,13.896,2.84c0.015,10.813,1.318,22.421,4.688,34.26H281.665z
	 M430.738,432.485c-16.902,17.556-41.272,28.977-50.856,31.753c-0.461-0.229-0.985-0.487-1.588-0.782
	c-8.753-4.298-32.011-15.722-46.689-30.971c-41.719-43.332-29.722-97.125-22.315-118.891c32.144,9.686,65.344-8.642,73.197-13.421
	c7.851,4.68,40.51,22.367,72.427,14.149c1.922-0.481,2.859,2.097,2.934,2.307C463.389,337.239,471.838,389.789,430.738,432.485z
	 M447.887,330.904c0.533,1.496,12.822,37.012-7.934,73.781c-1.04,1.849-2.158,3.677-3.31,5.436l-0.009-0.006
	c-1.384,2.253-3.791,3.493-6.252,3.493c-1.307,0-2.628-0.347-3.822-1.077c-3.456-2.117-4.545-6.631-2.43-10.086l3.178-5.192
	c12.667-22.443,10.424-44.913,8.301-55.372c-20.899,2.554-43.713-6.965-54.243-12.125c-11.556,5.685-33.286,14.346-53.163,10.965
	c-2.387,10.51-5.178,32.771,6.304,55.034l0.009,0.012l0.003-0.003c0.791,1.541,1.67,3.108,2.613,4.656l-0.029,0.017
	c1.803,3.502,0.539,7.822-2.922,9.757c-3.296,1.842-7.39,0.839-9.53-2.178l-0.052,0.031c-0.108-0.178-0.192-0.355-0.304-0.533
	c-0.028-0.051-0.068-0.092-0.098-0.146c-0.098-0.175-2.639-4.714-2.728-4.895l0.006-0.003c-18.757-36.601-5.811-71.718-5.249-73.196
	c1.409-3.717,5.526-5.646,9.269-4.324c18.859,6.562,44.899-5.926,52.436-9.911c2.144-1.135,4.716-1.135,6.856,0
	c3.347,1.771,33.298,17.12,54.22,11.267C442.712,325.266,446.592,327.277,447.887,330.904z M414.692,414.242l10.619,10.12
	l-1.112,1.154c-2.415,2.473-4.928,4.854-7.464,7.092l-9.708-10.997c2.272-2.006,4.519-4.138,6.683-6.35L414.692,414.242z
	 M348.741,415.268c1.688,1.719,3.434,3.404,5.181,4.994l-9.874,10.848c-1.951-1.776-3.899-3.653-5.787-5.578
	c-0.938-0.957-1.834-1.908-2.696-2.859l10.871-9.852C347.177,413.64,347.948,414.454,348.741,415.268z M366.306,430.023
	c3.123,2.078,6.049,3.711,8.69,4.854l-5.833,13.461c-3.436-1.49-7.129-3.542-10.978-6.098L366.306,430.023z M394.523,431.127
	l7.834,12.401c-4.046,2.559-7.883,4.513-11.396,5.802l-5.065-13.765C388.44,434.628,391.343,433.133,394.523,431.127z
	 M382.128,403.614c-0.143,0.009-0.286,0.012-0.424,0.012c-2.144,0-4.187-0.938-5.584-2.579l-20.938-24.575
	c-2.63-3.083-2.255-7.714,0.828-10.341c3.083-2.625,7.708-2.261,10.341,0.828l14.65,17.197l18.579-27.748
	c2.255-3.369,6.811-4.267,10.175-2.014c3.366,2.252,4.269,6.808,2.011,10.174l-23.968,35.803
	C386.521,402.282,384.421,403.479,382.128,403.614z M141.716,25.01c36.5-3.842,68.558,7.567,93.302,29.327
	c7.296,6.41-2.457,17.381-9.685,11.014c-21.783-19.15-49.836-29.159-82.08-25.75C133.642,40.642,132.049,26.029,141.716,25.01z
	 M110.864,30.472c2.874-0.831,5.799-1.573,8.699-2.198c9.496-2.019,12.556,12.304,3.089,14.344c-2.566,0.55-5.155,1.207-7.696,1.946
	c-0.685,0.197-1.374,0.292-2.049,0.292C104.498,44.855,102.735,32.838,110.864,30.472z M268.178,125.84
	c-7.258-6.419,2.462-17.425,9.725-10.98c10.579,9.367,26.049,16.762,47.298,22.604c9.249,2.539,5.573,16.771-3.891,14.143
	C297.851,145.158,280.473,136.731,268.178,125.84z M345.954,142.064c2.73,0.499,3.086,0.562,6.722,0.702
	c9.619,0.368,9.206,14.947-0.567,14.659c-4.301-0.167-5.347-0.301-8.779-0.926C333.793,154.766,336.403,140.334,345.954,142.064z
	 M274.613,439.496h-8.977c-9.69,0-9.708-14.67,0-14.67h8.977C284.304,424.826,284.318,439.496,274.613,439.496z M238.651,439.496
	H68.747c-9.692,0-9.706-14.67,0-14.67h169.904C248.341,424.826,248.357,439.496,238.651,439.496z"/>
</svg>
